# xmcd
#
# Track frame offsets:
#	150
#	24407
#	57783
#	77490
#	107730
#	137983
#	168198
#	202049
#	230207
#	261654
#	288736
#
# Disc length: 4148 seconds
#
# Revision: 1
# Processed by: cddbd v1.4PL0 Copyright (c) Steve Scherf et al.
# Submitted via: audiograbber 1.82.02
#
DISCID=a310320b
DTITLE=Blues Brokers - Let the Good Times Roll
DYEAR=2002
DGENRE=Blues - Modern Electric
TTITLE0=Bad Case of Love
TTITLE1=T-Bone Shuffle
TTITLE2=Well I'm Gone
TTITLE3=High Heel Sneakers
TTITLE4=I'm Coming Home
TTITLE5=Takin' Care of Business
TTITLE6=Jump, Jive and Wail
TTITLE7=Honey Hush
TTITLE8=Low Rider
TTITLE9=Sugar Street
TTITLE10=Let the Good Times Roll
EXTD=San Diego Blues Brokers\nRecorded live at the Kraken\nin Cardiff-by-the-Se
EXTD=a, CA\nMarch 31, 2002\nwww.bluesbrokers.com\n800.526.6461
EXTT0=
EXTT1=
EXTT2=
EXTT3=
EXTT4=
EXTT5=
EXTT6=
EXTT7=
EXTT8=
EXTT9=
EXTT10=
PLAYORDER=
